<?xml version="1.0" encoding="UTF-8" standalone="no"?>
<!-- Created with Inkscape (http://www.inkscape.org/) -->

<svg
   xmlns:dc="http://purl.org/dc/elements/1.1/"
   xmlns:cc="http://creativecommons.org/ns#"
   xmlns:rdf="http://www.w3.org/1999/02/22-rdf-syntax-ns#"
   xmlns:svg="http://www.w3.org/2000/svg"
   xmlns="http://www.w3.org/2000/svg"
   xmlns:xlink="http://www.w3.org/1999/xlink"
   xmlns:sodipodi="http://sodipodi.sourceforge.net/DTD/sodipodi-0.dtd"
   xmlns:inkscape="http://www.inkscape.org/namespaces/inkscape"
   width="200"
   height="200"
   id="svg2"
   version="1.1"
   inkscape:version="0.48.2 r9819"
   sodipodi:docname="New document 1">
  <defs
     id="defs4">
    <linearGradient
       id="linearGradient3772">
      <stop
         style="stop-color:#ffffff;stop-opacity:1;"
         offset="0"
         id="stop3774" />
      <stop
         id="stop3784"
         offset="0.72972971"
         style="stop-color:#7f7f7c;stop-opacity:1;" />
      <stop
         style="stop-color:#ffffff;stop-opacity:0;"
         offset="1"
         id="stop3776" />
    </linearGradient>
    <radialGradient
       inkscape:collect="always"
       xlink:href="#linearGradient3772"
       id="radialGradient3818"
       cx="75.979973"
       cy="1241.7601"
       fx="75.979973"
       fy="1241.7601"
       r="58.643948"
       gradientTransform="matrix(1.3115331,-0.49858706,0.24597249,1.8841216,-329.10912,-1059.9842)"
       gradientUnits="userSpaceOnUse"
       spreadMethod="pad" />
    <radialGradient
       inkscape:collect="always"
       xlink:href="#linearGradient3772"
       id="radialGradient3820"
       gradientUnits="userSpaceOnUse"
       gradientTransform="matrix(1.3115331,-0.49858706,0.24597249,1.8841216,-329.10912,-1059.9842)"
       spreadMethod="pad"
       cx="75.979973"
       cy="1241.7601"
       fx="75.979973"
       fy="1241.7601"
       r="58.643948" />
  </defs>
  <sodipodi:namedview
     id="base"
     pagecolor="#ffffff"
     bordercolor="#666666"
     borderopacity="1.0"
     inkscape:pageopacity="0.0"
     inkscape:pageshadow="2"
     inkscape:zoom="2.795"
     inkscape:cx="69.365041"
     inkscape:cy="100"
     inkscape:document-units="px"
     inkscape:current-layer="layer1"
     showgrid="false"
     inkscape:window-width="1280"
     inkscape:window-height="781"
     inkscape:window-x="-4"
     inkscape:window-y="-4"
     inkscape:window-maximized="1" />
  <metadata
     id="metadata7">
    <rdf:RDF>
      <cc:Work
         rdf:about="">
        <dc:format>image/svg+xml</dc:format>
        <dc:type
           rdf:resource="http://purl.org/dc/dcmitype/StillImage" />
        <dc:title></dc:title>
      </cc:Work>
    </rdf:RDF>
  </metadata>
  <g
     inkscape:label="Layer 1"
     inkscape:groupmode="layer"
     id="layer1"
     transform="translate(0,-852.36218)">
    <rect
       id="rect3786"
       width="213.95349"
       height="204.65117"
       x="-1.431127"
       y="-1.0733453"
       transform="translate(0,852.36218)"
       style="stroke:none;stroke-opacity:1" />
    <g
       transform="matrix(1.5346852,0,0,0.92081078,-16.605336,-191.06387)"
       style="font-size:69.5039444px;font-style:normal;font-variant:normal;font-weight:normal;font-stretch:normal;line-height:125%;letter-spacing:0px;word-spacing:0px;fill:url(#radialGradient3818);fill-opacity:1;stroke:none;font-family:Showcard Gothic;-inkscape-font-specification:Showcard Gothic"
       id="text2985">
      <path
         d="m 134.62392,1225.8773 c -6.02741,-1.3845 -10.5886,-2.0768 -13.68359,-2.077 -3.82825,2e-4 -7.33059,1.3033 -10.50704,3.9096 -3.82824,3.1767 -5.74231,7.2899 -5.74222,12.3397 -9e-5,3.9097 3.50225,11.4438 10.50704,22.6024 7.00459,11.1587 10.50693,21.4213 10.50704,30.788 -1.1e-4,13.6022 -5.17217,24.7608 -15.51621,33.4759 -9.85553,8.3894 -22.032278,12.5841 -36.530291,12.5841 -13.357836,0 -23.213268,-0.9367 -29.566325,-2.8101 -0.733079,-3.7467 -1.995552,-9.8554 -3.787422,-18.3262 -1.140325,-4.5612 -2.728597,-10.6292 -4.764821,-18.2041 8.959461,2.1992 14.98675,3.2988 18.081885,3.2988 12.135987,0 18.204001,-4.6019 18.204059,-13.8058 -5.8e-5,-6.6788 -2.443554,-12.6654 -7.330493,-17.9597 -7.982137,-7.0046 -15.964222,-14.05 -23.94628,-21.1363 -15.475499,-13.6834 -23.213234,-29.9327 -23.21323,-48.7477 -4e-6,-19.6293 7.330482,-34.4939 21.991481,-44.5939 12.7876,-8.7964 29.810619,-13.1947 51.069107,-13.1949 12.0545,2e-4 25.57518,1.7514 40.56207,5.2536 z"
         style="font-size:250.21418762px;text-align:center;text-anchor:middle;fill:url(#radialGradient3820);fill-opacity:1;-inkscape-font-specification:Showcard Gothic"
         id="path2998"
         inkscape:connector-curvature="0" />
    </g>
    <flowRoot
       xml:space="preserve"
       id="flowRoot2989"
       style="fill:black;stroke:none;stroke-opacity:1;stroke-width:1px;stroke-linejoin:miter;stroke-linecap:butt;fill-opacity:1;font-family:Showcard Gothic;font-style:normal;font-weight:normal;font-size:40px;line-height:125%;letter-spacing:0px;word-spacing:0px;-inkscape-font-specification:Showcard Gothic;font-stretch:normal;font-variant:normal"><flowRegion
         id="flowRegion2991"><rect
           id="rect2993"
           width="85.714287"
           height="245.71428"
           x="177.14285"
           y="-568.57141" /></flowRegion><flowPara
         id="flowPara2995"></flowPara></flowRoot>  </g>
</svg>
